<svg xmlns="http://www.w3.org/2000/svg" width="1600" height="1000" viewBox="0 0 1600 1000" font-family="DejaVu Sans, Arial, sans-serif">
<defs>
 <linearGradient id="sky" x1="0" y1="0" x2="0" y2="1">
   <stop offset="0" stop-color="#10161f"/><stop offset="0.45" stop-color="#1d2a35"/>
   <stop offset="0.78" stop-color="#40484a"/><stop offset="1" stop-color="#c98b52"/></linearGradient>
 <linearGradient id="glass" x1="0" y1="0" x2="0" y2="1">
   <stop offset="0" stop-color="#ffd98a"/><stop offset="0.5" stop-color="#ffbf5c"/><stop offset="1" stop-color="#ff9e3d"/></linearGradient>
 <radialGradient id="glow" cx="0.5" cy="0.4" r="0.7">
   <stop offset="0" stop-color="#ffd98a" stop-opacity="0.85"/><stop offset="1" stop-color="#ffd98a" stop-opacity="0"/></radialGradient>
 <radialGradient id="moon" cx="0.5" cy="0.5" r="0.5">
   <stop offset="0" stop-color="#fdf6e3"/><stop offset="1" stop-color="#e9e2c9"/></radialGradient>
 <linearGradient id="ground" x1="0" y1="0" x2="0" y2="1">
   <stop offset="0" stop-color="#2b3a2c"/><stop offset="1" stop-color="#131b14"/></linearGradient>
</defs>

<rect width="1600" height="1000" fill="url(#sky)"/>
<!-- moon + stars -->
<circle cx="1290" cy="180" r="52" fill="url(#moon)"/>
<circle cx="1290" cy="180" r="52" fill="none" stroke="#fdf6e3" stroke-opacity="0.25" stroke-width="10"/>
<circle cx="260" cy="120" r="2" fill="#eef3f6" opacity="0.8"/><circle cx="430" cy="90" r="1.6" fill="#eef3f6" opacity="0.6"/><circle cx="600" cy="150" r="2" fill="#eef3f6" opacity="0.7"/><circle cx="880" cy="100" r="1.5" fill="#eef3f6" opacity="0.6"/><circle cx="1050" cy="160" r="2" fill="#eef3f6" opacity="0.7"/><circle cx="180" cy="220" r="1.5" fill="#eef3f6" opacity="0.5"/><circle cx="1420" cy="300" r="1.6" fill="#eef3f6" opacity="0.6"/><circle cx="1150" cy="70" r="1.5" fill="#eef3f6" opacity="0.5"/><circle cx="720" cy="70" r="1.6" fill="#eef3f6" opacity="0.6"/>

<!-- hills -->
<path d="M0,560 Q380,430 760,520 T1600,470 L1600,760 L0,760 Z" fill="#26333a"/>
<path d="M0,620 Q420,520 820,585 T1600,560 L1600,800 L0,800 Z" fill="#1c272b"/>
<!-- distant pines on ridge -->
<path d="M120,565 L105,565 L120,495 L135,565 Z" fill="#1b2620"/><rect x="117" y="565" width="6" height="8" fill="#1b2620"/><path d="M175,565 L160,565 L175,495 L190,565 Z" fill="#1b2620"/><rect x="172" y="565" width="6" height="8" fill="#1b2620"/><path d="M230,565 L215,565 L230,495 L245,565 Z" fill="#1b2620"/><rect x="227" y="565" width="6" height="8" fill="#1b2620"/><path d="M285,565 L270,565 L285,495 L300,565 Z" fill="#1b2620"/><rect x="282" y="565" width="6" height="8" fill="#1b2620"/><path d="M340,565 L325,565 L340,495 L355,565 Z" fill="#1b2620"/><rect x="337" y="565" width="6" height="8" fill="#1b2620"/><path d="M395,565 L380,565 L395,495 L410,565 Z" fill="#1b2620"/><rect x="392" y="565" width="6" height="8" fill="#1b2620"/>
<path d="M1180,545 L1166,545 L1180,481 L1194,545 Z" fill="#1b2620"/><rect x="1177" y="545" width="6" height="8" fill="#1b2620"/><path d="M1238,545 L1224,545 L1238,481 L1252,545 Z" fill="#1b2620"/><rect x="1235" y="545" width="6" height="8" fill="#1b2620"/><path d="M1296,545 L1282,545 L1296,481 L1310,545 Z" fill="#1b2620"/><rect x="1293" y="545" width="6" height="8" fill="#1b2620"/><path d="M1354,545 L1340,545 L1354,481 L1368,545 Z" fill="#1b2620"/><rect x="1351" y="545" width="6" height="8" fill="#1b2620"/><path d="M1412,545 L1398,545 L1412,481 L1426,545 Z" fill="#1b2620"/><rect x="1409" y="545" width="6" height="8" fill="#1b2620"/><path d="M1470,545 L1456,545 L1470,481 L1484,545 Z" fill="#1b2620"/><rect x="1467" y="545" width="6" height="8" fill="#1b2620"/>

<!-- ground -->
<rect x="0" y="700" width="1600" height="300" fill="url(#ground)"/>

<!-- side pines (foreground framing) -->
<path d="M95,780 L29,780 L95,480 L161,780 Z" fill="#0e1510"/><rect x="92" y="780" width="6" height="36" fill="#0e1510"/>
<path d="M1520,815 L1445,815 L1520,475 L1595,815 Z" fill="#0e1510"/><rect x="1517" y="815" width="6" height="41" fill="#0e1510"/>
<path d="M1470,800 L1415,800 L1470,550 L1525,800 Z" fill="#101911"/><rect x="1467" y="800" width="6" height="30" fill="#101911"/>

<!-- ===== HOUSE ===== -->
<!-- depth side wall -->
<polygon points="1000,724 1090,674 1090,460 1000,510" fill="#12181c"/>
<polygon points="1000,510 1090,460 785,287 740,314" fill="#0d1114"/>
<!-- warm glow behind glass -->
<ellipse cx="740" cy="617" rx="230" ry="200" fill="url(#glow)"/>
<!-- body -->
<polygon points="480,724 1000,724 1000,510 740,314 480,510" fill="#1a2124" stroke="#0b0e10" stroke-width="4"/>
<!-- vertical wood planken (left wall) -->
<line x1="490" y1="720" x2="490" y2="516" stroke="#8a5a30" stroke-width="6" opacity="0.9"/><line x1="501" y1="720" x2="501" y2="516" stroke="#8a5a30" stroke-width="6" opacity="0.9"/><line x1="512" y1="720" x2="512" y2="516" stroke="#8a5a30" stroke-width="6" opacity="0.9"/><line x1="523" y1="720" x2="523" y2="516" stroke="#8a5a30" stroke-width="6" opacity="0.9"/><line x1="534" y1="720" x2="534" y2="516" stroke="#8a5a30" stroke-width="6" opacity="0.9"/><line x1="545" y1="720" x2="545" y2="516" stroke="#8a5a30" stroke-width="6" opacity="0.9"/><line x1="556" y1="720" x2="556" y2="516" stroke="#8a5a30" stroke-width="6" opacity="0.9"/>
<!-- panoramic glass -->
<polygon points="579,698 901,698 901,510 740,388 579,510" fill="url(#glass)" stroke="#241a12" stroke-width="7"/>
<!-- interior hints: pendant lamp + sofa silhouette -->
<circle cx="740" cy="591" r="9" fill="#fff3d0"/>
<line x1="740" y1="510" x2="740" y2="591" stroke="#a8823f" stroke-width="2"/>
<rect x="645" y="660" width="190" height="47" rx="10" fill="#5a3d22" opacity="0.55"/>
<!-- mullions -->
<line x1="659" y1="698" x2="659" y2="510" stroke="#241a12" stroke-width="5"/><line x1="740" y1="698" x2="740" y2="510" stroke="#241a12" stroke-width="5"/><line x1="821" y1="698" x2="821" y2="510" stroke="#241a12" stroke-width="5"/>
<line x1="579" y1="606" x2="901" y2="606" stroke="#241a12" stroke-width="5"/>
<!-- roof ridge sheen -->
<line x1="480" y1="510" x2="740" y2="314" stroke="#2a3236" stroke-width="4"/>
<line x1="740" y1="314" x2="1000" y2="510" stroke="#2a3236" stroke-width="4"/>

<!-- ===== DECK ===== -->
<rect x="420" y="724" width="670" height="46" fill="#7a5230"/>
<rect x="420" y="724" width="670" height="46" fill="#000" opacity="0.15"/>
<line x1="420" y1="724" x2="420" y2="770" stroke="#5e3f24" stroke-width="2"/><line x1="446" y1="724" x2="446" y2="770" stroke="#5e3f24" stroke-width="2"/><line x1="472" y1="724" x2="472" y2="770" stroke="#5e3f24" stroke-width="2"/><line x1="498" y1="724" x2="498" y2="770" stroke="#5e3f24" stroke-width="2"/><line x1="524" y1="724" x2="524" y2="770" stroke="#5e3f24" stroke-width="2"/><line x1="550" y1="724" x2="550" y2="770" stroke="#5e3f24" stroke-width="2"/><line x1="576" y1="724" x2="576" y2="770" stroke="#5e3f24" stroke-width="2"/><line x1="602" y1="724" x2="602" y2="770" stroke="#5e3f24" stroke-width="2"/><line x1="628" y1="724" x2="628" y2="770" stroke="#5e3f24" stroke-width="2"/><line x1="654" y1="724" x2="654" y2="770" stroke="#5e3f24" stroke-width="2"/><line x1="680" y1="724" x2="680" y2="770" stroke="#5e3f24" stroke-width="2"/><line x1="706" y1="724" x2="706" y2="770" stroke="#5e3f24" stroke-width="2"/><line x1="732" y1="724" x2="732" y2="770" stroke="#5e3f24" stroke-width="2"/><line x1="758" y1="724" x2="758" y2="770" stroke="#5e3f24" stroke-width="2"/><line x1="784" y1="724" x2="784" y2="770" stroke="#5e3f24" stroke-width="2"/><line x1="810" y1="724" x2="810" y2="770" stroke="#5e3f24" stroke-width="2"/><line x1="836" y1="724" x2="836" y2="770" stroke="#5e3f24" stroke-width="2"/><line x1="862" y1="724" x2="862" y2="770" stroke="#5e3f24" stroke-width="2"/><line x1="888" y1="724" x2="888" y2="770" stroke="#5e3f24" stroke-width="2"/><line x1="914" y1="724" x2="914" y2="770" stroke="#5e3f24" stroke-width="2"/><line x1="940" y1="724" x2="940" y2="770" stroke="#5e3f24" stroke-width="2"/><line x1="966" y1="724" x2="966" y2="770" stroke="#5e3f24" stroke-width="2"/><line x1="992" y1="724" x2="992" y2="770" stroke="#5e3f24" stroke-width="2"/><line x1="1018" y1="724" x2="1018" y2="770" stroke="#5e3f24" stroke-width="2"/><line x1="1044" y1="724" x2="1044" y2="770" stroke="#5e3f24" stroke-width="2"/><line x1="1070" y1="724" x2="1070" y2="770" stroke="#5e3f24" stroke-width="2"/><line x1="1096" y1="724" x2="1096" y2="770" stroke="#5e3f24" stroke-width="2"/>
<!-- warm spill on deck -->
<ellipse cx="740" cy="742" rx="240" ry="26" fill="#ffcf6e" opacity="0.22"/>

<!-- ЧАН with steam -->
<ellipse cx="1070" cy="726" rx="78" ry="30" fill="#5a3d20"/>
<ellipse cx="1070" cy="720" rx="64" ry="22" fill="#3a6b73"/>
<ellipse cx="1070" cy="718" rx="52" ry="16" fill="#7fb0b3" opacity="0.8"/>
<path d="M1030,724 q0,40 40,40 q40,0 40,-40" fill="#48301a"/>
<path d="M1046,700 q-10,-26 4,-42 q10,-16 0,-34" fill="none" stroke="#dfeef0" stroke-width="4" opacity="0.45"/><path d="M1070,700 q-10,-26 4,-42 q10,-16 0,-34" fill="none" stroke="#dfeef0" stroke-width="4" opacity="0.45"/><path d="M1092,700 q-10,-26 4,-42 q10,-16 0,-34" fill="none" stroke="#dfeef0" stroke-width="4" opacity="0.45"/>
<!-- loungers -->
<g fill="#6a4728">
 <rect x="450" y="730" width="52" height="26" rx="6"/>
 <rect x="520" y="730" width="52" height="26" rx="6"/></g>
<!-- path lights -->
<circle cx="760" cy="794" r="4" fill="#ffcf6e"/><circle cx="760" cy="794" r="12" fill="#ffcf6e" opacity="0.18"/><circle cx="850" cy="808" r="4" fill="#ffcf6e"/><circle cx="850" cy="808" r="12" fill="#ffcf6e" opacity="0.18"/><circle cx="940" cy="822" r="4" fill="#ffcf6e"/><circle cx="940" cy="822" r="12" fill="#ffcf6e" opacity="0.18"/><circle cx="1030" cy="836" r="4" fill="#ffcf6e"/><circle cx="1030" cy="836" r="12" fill="#ffcf6e" opacity="0.18"/>

<!-- caption -->
<text x="60" y="930" font-size="40" font-weight="800" fill="#f4efe1" font-family="Georgia,serif">White<tspan fill="#E0B84A">.</tspan>Lev<tspan fill="#E0B84A">.</tspan>Travel · <tspan font-family="DejaVu Sans">Compact</tspan></text>
<text x="62" y="962" font-size="22" fill="#cbd3cf" fill-opacity="0.9" font-family="DejaVu Sans">Сутінки в Карпатах · панорама й тераса з чаном на Пд-Зх · концепт-візуалізація (не фоторендер)</text>
</svg>