<svg xmlns="http://www.w3.org/2000/svg" width="1200" height="800" font-family="Arial,sans-serif"><rect width="1200" height="800" fill="#f4f2ee"/><text x="36" y="50" font-size="30" font-weight="bold">White.Lev.Travel · 4×Comfort</text><text x="36" y="85" font-size="20">Явора · масив ≈0.44 га · схема не в масштабі · точна посадка уточнюється</text><polygon points="150,150 780,120 830,560 210,610" fill="#e2e2dd" stroke="#777" stroke-width="2"/><line x1="500" y1="132" x2="540" y2="585" stroke="#aaa" stroke-dasharray="6 5"/><text x="230" y="230" fill="#555">:0002 · 0.19 га</text><text x="650" y="350" fill="#555">:0001 · 0.25 га</text><line x1="120" y1="175" x2="770" y2="140" stroke="#777" stroke-width="6"/><text x="165" y="130">Залізниця · шумовий буфер</text><line x1="760" y1="150" x2="560" y2="580" stroke="#888" stroke-dasharray="10 6"/><text x="700" y="210" font-size="14">ЛЕП</text><rect x="250" y="545" width="285" height="46" rx="5" fill="#fff" stroke="#777"/><text x="270" y="574" font-size="16">В’їзд · паркінг · технічний вузол</text><rect x="300" y="300" width="62" height="46" rx="4" fill="#222"/><rect x="300" y="346" width="62" height="12" fill="#999"/><text x="331" y="330" fill="white" text-anchor="middle" font-size="22">1</text><rect x="430" y="370" width="62" height="46" rx="4" fill="#222"/><rect x="430" y="416" width="62" height="12" fill="#999"/><text x="461" y="400" fill="white" text-anchor="middle" font-size="22">2</text><rect x="580" y="410" width="62" height="46" rx="4" fill="#222"/><rect x="580" y="456" width="62" height="12" fill="#999"/><text x="611" y="440" fill="white" text-anchor="middle" font-size="22">3</text><rect x="660" y="250" width="62" height="46" rx="4" fill="#222"/><rect x="660" y="296" width="62" height="12" fill="#999"/><text x="691" y="280" fill="white" text-anchor="middle" font-size="22">4</text><text x="865" y="265" font-size="18">1. Адам і Єва</text><text x="865" y="333" font-size="18">2. Пікассо</text><text x="865" y="401" font-size="18">3. Max Royal</text><text x="865" y="469" font-size="18">4. Ромео і Джульєтта</text><text x="865" y="550" font-size="18">Кожен: 2 дорослих, 18+</text><text x="865" y="580" font-size="18">Без дітей і додаткових місць</text><text x="36" y="705" font-size="22">Одна конструкція · чотири інтер’єри · необхідний комфорт · доступна реалізація</text><text x="36" y="746" font-size="18" fill="#666">Номери позначають теми. Координати, проходи та інженерія потребують проєктної перевірки.</text></svg>